# xmcd CD database file
#
# Track frame offsets:
#	150
#	13646
#	29827
#	46827
#	59003
#
# Disc length: 985 seconds
#
# Revision: 0
# Processed by: cddbd v1.5.1PL2 Copyright (c) Steve Scherf et al.
# Submitted via: CDex 1.51
#
DISCID=4003d705
DTITLE=Vaughn Armstrong - Enterprise Blues
DYEAR=2004
DGENRE=Blues
TTITLE0=Enterprise Blues
TTITLE1=Star Trek Woman Jones
TTITLE2=Travelling Through Space
TTITLE3=Enterprising On
TTITLE4=Trekkie Deckie
EXTD=YEAR: 2004
EXTT0=
EXTT1=
EXTT2=
EXTT3=
EXTT4=
PLAYORDER=
